<svg id="Group_47" data-name="Group 47" xmlns="http://www.w3.org/2000/svg" width="36" height="36" viewBox="0 0 36 36">
  <path id="Dark_Blue" d="M31.5,36H4.5A4.5,4.5,0,0,1,0,31.5V4.5A4.5,4.5,0,0,1,4.5,0h27A4.5,4.5,0,0,1,36,4.5v27A4.5,4.5,0,0,1,31.5,36Z" fill="#1da1f2"/>
  <path id="Logo__x2014__FIXED" d="M103.193,144.24a13.046,13.046,0,0,0,13.131-13.131c0-.2,0-.4-.009-.594a9.4,9.4,0,0,0,2.3-2.394,9.354,9.354,0,0,1-2.655.729A4.643,4.643,0,0,0,118,126.294a9.18,9.18,0,0,1-2.934,1.116,4.616,4.616,0,0,0-7.983,3.159,5.1,5.1,0,0,0,.117,1.053,13.105,13.105,0,0,1-9.513-4.824,4.634,4.634,0,0,0,1.431,6.165,4.668,4.668,0,0,1-2.088-.576v.063a4.625,4.625,0,0,0,3.7,4.527,4.641,4.641,0,0,1-2.079.081,4.615,4.615,0,0,0,4.311,3.2,9.256,9.256,0,0,1-5.733,1.98,8.881,8.881,0,0,1-1.1-.063,13.128,13.128,0,0,0,7.065,2.061" transform="translate(-89.369 -117.096)" fill="#fff"/>
</svg>
