<svg xmlns="http://www.w3.org/2000/svg" width="36" height="36" viewBox="0 0 36 36">
  <g id="Group_46" data-name="Group 46" transform="translate(-42.01 -42.95)">
    <rect id="Rectangle_16" data-name="Rectangle 16" width="36" height="36" rx="4" transform="translate(42.01 42.95)"/>
    <path id="Path_43" data-name="Path 43" d="M129.5,98.4V93.6a6.4,6.4,0,0,1-6.477-6.5v-.04h-4.85v18.7h0a3.841,3.841,0,1,1-2.722-3.677V97.129a8.8,8.8,0,0,0-1.12-.072,8.7,8.7,0,1,0,8.7,8.7c0-.122,0-.243-.008-.363V96.187C125.254,98.23,129.5,98.4,129.5,98.4Z" transform="translate(-58.268 -40.4)" fill="#00f6ef"/>
    <path id="Path_44" data-name="Path 44" d="M146.479,112.457v-4.8a6.4,6.4,0,0,1-6.477-6.5v-.04h-4.85v18.7h0a3.841,3.841,0,1,1-2.722-3.676v-4.952a8.8,8.8,0,0,0-1.123-.068,8.7,8.7,0,1,0,8.7,8.7c0-.122,0-.243-.008-.363v-9.207C142.234,112.28,146.479,112.457,146.479,112.457Z" transform="translate(-73.82 -53.268)" fill="#fff"/>
    <path id="Path_45" data-name="Path 45" d="M313.82,101.11a6.325,6.325,0,0,0,2.908,4.43,7.273,7.273,0,0,1-1.6-4.389v-.04Z" transform="translate(-248.946 -53.268)" fill="#ff004f"/>
    <path id="Path_46" data-name="Path 46" d="M173.168,181.871v-4.8a8.957,8.957,0,0,1-1.43-.168v3.781s-4.245-.174-6.477-2.217v9.2c.005.12.008.241.008.363a8.7,8.7,0,0,1-13.519,7.243,8.7,8.7,0,0,0,14.948-6.052c0-.122,0-.243-.008-.363v-9.207C168.923,181.695,173.168,181.871,173.168,181.871Z" transform="translate(-100.509 -122.682)" fill="#ff004f"/>
    <path id="Path_47" data-name="Path 47" d="M168.308,223.829a3.843,3.843,0,0,0-2.792,7.137,3.843,3.843,0,0,1,4.22-5.947v-4.952a8.8,8.8,0,0,0-1.123-.068c-.1,0-.205,0-.308.006Z" transform="translate(-111.126 -162.156)" fill="#ff004f"/>
  </g>
</svg>
