<svg id="Group_9" data-name="Group 9" xmlns="http://www.w3.org/2000/svg" width="27.219" height="27.219" viewBox="0 0 27.219 27.219">
  <path id="Path_37" data-name="Path 37" d="M0,0H27.219V27.219H0Z" fill="none"/>
  <path id="Path_38" data-name="Path 38" d="M10.111,14.841a17.08,17.08,0,0,0,7.474,7.468l2.5-2.5a1.138,1.138,0,0,1,1.151-.278,12.911,12.911,0,0,0,4.049.646,1.13,1.13,0,0,1,1.134,1.134V25.28a1.13,1.13,0,0,1-1.134,1.134A19.278,19.278,0,0,1,6,7.134,1.134,1.134,0,0,1,7.134,6H11.1a1.13,1.13,0,0,1,1.134,1.134,12.91,12.91,0,0,0,.646,4.049,1.138,1.138,0,0,1-.278,1.151Z" transform="translate(-2.598 -2.598)" fill="#fff"/>
</svg>
