<svg id="icon_twitter" data-name="icon/ twitter" xmlns="http://www.w3.org/2000/svg" xmlns:xlink="http://www.w3.org/1999/xlink" width="36" height="36" viewBox="0 0 36 36">
  <defs>
    <linearGradient id="linear-gradient" x1="0.5" x2="0.5" y2="1" gradientUnits="objectBoundingBox">
      <stop offset="0" stop-color="#0ab3d0"/>
      <stop offset="1" stop-color="#e468ca"/>
    </linearGradient>
  </defs>
  <g id="Rectangle_6814" data-name="Rectangle 6814" fill="rgba(10,179,208,0)" stroke="#9583cc" stroke-width="1">
    <rect width="36" height="36" rx="4" stroke="none"/>
    <rect x="0.5" y="0.5" width="35" height="35" rx="3.5" fill="none"/>
  </g>
  <path id="twit" d="M29.955,12.908a10.625,10.625,0,0,1-3.109.867,5.5,5.5,0,0,0,2.38-3.047,10.723,10.723,0,0,1-3.437,1.337,5.362,5.362,0,0,0-3.951-1.739,5.46,5.46,0,0,0-5.412,5.507,5.606,5.606,0,0,0,.14,1.255A15.282,15.282,0,0,1,5.411,11.334a5.578,5.578,0,0,0,1.675,7.353A5.327,5.327,0,0,1,4.634,18c0,.023,0,.046,0,.07a5.488,5.488,0,0,0,4.342,5.4,5.354,5.354,0,0,1-1.426.193,5.273,5.273,0,0,1-1.019-.1,5.431,5.431,0,0,0,5.056,3.825,10.768,10.768,0,0,1-8.013,2.28,15.126,15.126,0,0,0,8.3,2.474c9.956,0,15.4-8.391,15.4-15.669q0-.358-.015-.713A11.071,11.071,0,0,0,29.955,12.908Z" transform="translate(1.426 -2.326)" fill="url(#linear-gradient)"/>
</svg>
