<svg id="icon2" xmlns="http://www.w3.org/2000/svg" width="34" height="34" viewBox="0 0 34 34">
  <rect id="Rectangle_7" data-name="Rectangle 7" width="34" height="34" fill="rgba(255,255,255,0)"/>
  <path id="Path_39" data-name="Path 39" d="M21.113,1.208l1.644,3.083L25.84,5.935,22.758,7.58l-1.644,3.083L19.469,7.58,16.386,5.935l3.083-1.644Zm-7.9,10.13,6.234,3.325-6.234,3.325L9.892,24.221,6.568,17.987.334,14.663l6.234-3.325L9.892,5.1Zm.935,3.325-2.778-1.482L9.892,10.4,8.411,13.181,5.633,14.663l2.778,1.482,1.482,2.778,1.482-2.778Zm10.286,5.4-2.078-3.9-2.078,3.9-3.9,2.078,3.9,2.078,2.078,3.9,2.078-3.9,3.9-2.078Z" transform="translate(2.666 2.792)" fill="#e468ca"/>
</svg>
