<svg xmlns="http://www.w3.org/2000/svg" width="25.97" height="19.478" viewBox="0 0 25.97 19.478">
  <path id="Path_36" data-name="Path 36" d="M12.985,78.608a3.877,3.877,0,0,1-2.392-.832L0,69.539v11.5a2.435,2.435,0,0,0,2.435,2.435h21.1a2.435,2.435,0,0,0,2.435-2.435v-11.5L15.379,77.782A3.907,3.907,0,0,1,12.985,78.608ZM.826,68.124,11.59,76.5a2.274,2.274,0,0,0,2.793,0l10.764-8.374a2.292,2.292,0,0,0,.824-1.689A2.435,2.435,0,0,0,23.536,64H2.435A2.435,2.435,0,0,0,0,66.435,2.141,2.141,0,0,0,.826,68.124Z" transform="translate(0 -64)" fill="#0ab3d0"/>
</svg>
