<svg xmlns="http://www.w3.org/2000/svg" width="36" height="36" viewBox="0 0 36 36">
  <g id="Group_45" data-name="Group 45" transform="translate(0.002)">
    <path id="Path_40" data-name="Path 40" d="M30.262,0A5.737,5.737,0,0,1,36,5.737V30.264A5.737,5.737,0,0,1,30.262,36H5.735A5.737,5.737,0,0,1,0,30.264V5.737A5.737,5.737,0,0,1,5.735,0H30.262Z" fill="#f7ec1e"/>
    <path id="Path_41" data-name="Path 41" d="M81.324,104.727c-.068,0-.135,0-.2-.005h0c-.043,0-.087.005-.132.005a5.77,5.77,0,0,1-3.535-1.394,5.156,5.156,0,0,0-2.046-1.044,6.6,6.6,0,0,0-1.074-.091,7.35,7.35,0,0,0-1.489.168,3.26,3.26,0,0,1-.555.08.349.349,0,0,1-.385-.275c-.062-.21-.107-.414-.149-.611-.111-.507-.189-.819-.4-.852-2.478-.383-3.187-.9-3.345-1.275a.477.477,0,0,1-.038-.158.279.279,0,0,1,.233-.291c3.809-.627,5.517-4.521,5.588-4.686l.006-.014a1.451,1.451,0,0,0,.136-1.219c-.261-.616-1.114-.887-1.678-1.066-.138-.044-.269-.085-.372-.126-1.126-.445-1.22-.9-1.176-1.135a1.064,1.064,0,0,1,1.035-.673.726.726,0,0,1,.308.062,3.281,3.281,0,0,0,1.357.358,1.119,1.119,0,0,0,.811-.259c-.014-.258-.031-.527-.049-.8-.113-1.8-.254-4.039.316-5.316a6.891,6.891,0,0,1,6.4-4.126l.469,0h.063A6.9,6.9,0,0,1,87.828,84.1c.57,1.278.429,3.518.315,5.317l0,.078c-.016.251-.031.494-.044.727a1.085,1.085,0,0,0,.739.257h0a3.4,3.4,0,0,0,1.279-.355.964.964,0,0,1,.4-.078,1.213,1.213,0,0,1,.457.087l.008,0a.84.84,0,0,1,.639.684c0,.264-.2.661-1.185,1.051-.1.04-.233.082-.372.126-.565.179-1.417.45-1.678,1.066a1.45,1.45,0,0,0,.136,1.219l.006.014c.071.165,1.778,4.057,5.589,4.685a.28.28,0,0,1,.233.291.467.467,0,0,1-.039.159c-.157.368-.866.889-3.345,1.272-.2.031-.281.3-.4.848-.044.2-.088.4-.15.607a.331.331,0,0,1-.355.265h-.031a3.1,3.1,0,0,1-.555-.07,7.4,7.4,0,0,0-1.489-.158,6.6,6.6,0,0,0-1.075.091,5.15,5.15,0,0,0-2.043,1.042A5.772,5.772,0,0,1,81.324,104.727Z" transform="translate(-63.194 -74.35)" fill="#fff"/>
    <path id="Path_42" data-name="Path 42" d="M77.725,76h-.067l-.466,0A7.166,7.166,0,0,0,70.54,80.3c-.6,1.34-.454,3.615-.339,5.444.013.216.028.439.04.656a1.072,1.072,0,0,1-.524.114,3.011,3.011,0,0,1-1.239-.331,1,1,0,0,0-.427-.088,1.336,1.336,0,0,0-1.309.9c-.074.388.1.954,1.347,1.447.113.045.248.087.391.132.515.164,1.294.411,1.506.909a1.2,1.2,0,0,1-.13.986l-.012.027c-.069.16-1.717,3.918-5.377,4.52A.559.559,0,0,0,64,95.6a.752.752,0,0,0,.06.251c.275.642,1.434,1.113,3.543,1.44a2.621,2.621,0,0,1,.189.638c.044.2.09.411.154.632a.624.624,0,0,0,.653.476,3.4,3.4,0,0,0,.608-.086,7.111,7.111,0,0,1,1.435-.163,6.319,6.319,0,0,1,1.029.087,4.882,4.882,0,0,1,1.929,1,6.078,6.078,0,0,0,3.7,1.446c.045,0,.091,0,.136,0s.123,0,.2,0a6.076,6.076,0,0,0,3.7-1.446,4.884,4.884,0,0,1,1.93-1,6.308,6.308,0,0,1,1.029-.087,7.156,7.156,0,0,1,1.435.152,3.373,3.373,0,0,0,.608.075h.031a.607.607,0,0,0,.623-.466c.064-.216.109-.419.154-.625a2.6,2.6,0,0,1,.188-.635c2.11-.328,3.269-.8,3.543-1.437a.744.744,0,0,0,.06-.252.558.558,0,0,0-.467-.582c-3.662-.6-5.309-4.361-5.377-4.52l-.013-.027a1.2,1.2,0,0,1-.129-.986c.211-.5.99-.745,1.505-.908.144-.046.28-.089.391-.133.913-.36,1.371-.8,1.361-1.316a1.092,1.092,0,0,0-.82-.94h0a1.5,1.5,0,0,0-.562-.108,1.242,1.242,0,0,0-.516.1,3.142,3.142,0,0,1-1.161.329,1.032,1.032,0,0,1-.452-.112c.011-.186.022-.377.035-.576l0-.078c.116-1.83.259-4.107-.339-5.448A7.178,7.178,0,0,0,77.725,76Zm0,.558a6.621,6.621,0,0,1,6.155,3.964c.542,1.215.4,3.417.292,5.186-.018.281-.035.552-.049.812l-.006.112.075.083a1.326,1.326,0,0,0,.938.352h.021a3.66,3.66,0,0,0,1.388-.382.675.675,0,0,1,.279-.052.933.933,0,0,1,.352.067l.016.006c.266.093.454.269.457.428,0,.09-.066.414-1.008.786-.092.036-.213.075-.354.119-.613.195-1.539.488-1.851,1.223a1.714,1.714,0,0,0,.143,1.452c.111.26,1.861,4.2,5.8,4.851a.181.181,0,0,1-.016.063c-.067.157-.491.7-3.131,1.108-.413.064-.515.527-.632,1.065-.042.193-.085.387-.145.588-.018.061-.021.064-.087.064H86.33a2.922,2.922,0,0,1-.5-.065,7.728,7.728,0,0,0-1.542-.163,6.874,6.874,0,0,0-1.12.094A5.359,5.359,0,0,0,81,99.415a5.542,5.542,0,0,1-3.374,1.343c-.064,0-.127,0-.19-.005h-.033c-.036,0-.073,0-.11,0a5.544,5.544,0,0,1-3.374-1.343,5.355,5.355,0,0,0-2.161-1.091,6.874,6.874,0,0,0-1.12-.094A7.6,7.6,0,0,0,69.1,98.4a3.133,3.133,0,0,1-.5.075c-.1,0-.1-.006-.118-.075-.059-.2-.1-.4-.145-.593-.118-.539-.219-1-.632-1.068-2.64-.408-3.064-.952-3.131-1.109a.184.184,0,0,1-.016-.064c3.938-.649,5.688-4.591,5.8-4.851a1.713,1.713,0,0,0,.143-1.451c-.312-.734-1.238-1.028-1.851-1.223-.14-.044-.262-.083-.354-.119-.8-.314-1.041-.631-1-.823.042-.221.426-.446.76-.446a.456.456,0,0,1,.19.035,3.558,3.558,0,0,0,1.475.384,1.362,1.362,0,0,0,1.022-.355l.074-.083-.006-.111c-.014-.26-.031-.531-.049-.812-.111-1.769-.25-3.969.292-5.185a6.613,6.613,0,0,1,6.143-3.961l.471,0Z" transform="translate(-59.501 -70.66)" fill="#030505"/>
  </g>
</svg>
