<svg id="twitter" xmlns="http://www.w3.org/2000/svg" xmlns:xlink="http://www.w3.org/1999/xlink" width="36" height="36" viewBox="0 0 36 36">
  <defs>
    <linearGradient id="linear-gradient" x1="0.5" x2="0.5" y2="1" gradientUnits="objectBoundingBox">
      <stop offset="0" stop-color="#0ab3d0"/>
      <stop offset="1" stop-color="#e468ca"/>
    </linearGradient>
  </defs>
  <g id="Rectangle_7352" data-name="Rectangle 7352" fill="rgba(10,179,208,0)" stroke="#9583cc" stroke-width="1">
    <rect width="36" height="36" rx="4" stroke="none"/>
    <rect x="0.5" y="0.5" width="35" height="35" rx="3.5" fill="none"/>
  </g>
  <g id="icon-24-_tiktok" data-name="icon-24- tiktok" transform="translate(2 5)">
    <rect id="Rectangle_7141" data-name="Rectangle 7141" width="26" height="26" fill="rgba(255,255,255,0)"/>
    <g id="Group_17182" data-name="Group 17182" transform="translate(5.542 1.573)">
      <path id="Path_10808" data-name="Path 10808" d="M124.933,96.131V92.292a5.136,5.136,0,0,1-5.238-5.2V87.06h-3.922v14.95h0a3.075,3.075,0,0,1-2.134,2.915,3.126,3.126,0,0,1-3.468-1.089,3.043,3.043,0,0,1-.041-3.6,3.125,3.125,0,0,1,3.443-1.167V95.111a7.192,7.192,0,0,0-.906-.057,6.957,6.957,0,1,0,7.035,6.956c0-.1,0-.194-.007-.291V94.358C121.5,95.992,124.933,96.131,124.933,96.131Z" transform="translate(-105.63 -87.06)" fill="url(#linear-gradient)"/>
      <path id="Path_10809" data-name="Path 10809" d="M141.913,110.183v-3.841a5.136,5.136,0,0,1-5.238-5.2v-.032h-3.922v14.95h0a3.075,3.075,0,0,1-2.134,2.915,3.126,3.126,0,0,1-3.469-1.089,3.043,3.043,0,0,1-.042-3.6,3.125,3.125,0,0,1,3.443-1.167v-3.96a7.2,7.2,0,0,0-.908-.054,6.957,6.957,0,1,0,7.037,6.954c0-.1,0-.194-.007-.291v-7.362C138.48,110.042,141.913,110.183,141.913,110.183Z" transform="translate(-121.456 -100.165)" fill="url(#linear-gradient)"/>
      <path id="Path_10810" data-name="Path 10810" d="M313.82,101.11a5.052,5.052,0,0,0,2.352,3.542,5.773,5.773,0,0,1-1.292-3.51v-.032Z" transform="translate(-299.659 -100.165)" fill="url(#linear-gradient)"/>
      <path id="Path_10811" data-name="Path 10811" d="M169.071,180.875v-3.841a7.319,7.319,0,0,1-1.156-.135v3.023s-3.433-.139-5.238-1.773v7.36c0,.1.007.193.007.291a6.946,6.946,0,0,1-3.713,6.131,7.1,7.1,0,0,1-7.221-.34,7.092,7.092,0,0,0,7.694,1.609,6.956,6.956,0,0,0,4.395-6.448c0-.1,0-.194-.007-.291V179.1C165.638,180.734,169.071,180.875,169.071,180.875Z" transform="translate(-148.612 -170.857)" fill="url(#linear-gradient)"/>
      <path id="Path_10812" data-name="Path 10812" d="M167.358,223.062a3.118,3.118,0,0,0-3.8,1.82,3.059,3.059,0,0,0,1.543,3.887,3.045,3.045,0,0,1-.027-3.594,3.127,3.127,0,0,1,3.44-1.162v-3.96A7.189,7.189,0,0,0,167.6,220c-.084,0-.166,0-.249,0Z" transform="translate(-159.417 -211.058)" fill="url(#linear-gradient)"/>
    </g>
  </g>
</svg>
